<svg width="8" height="14" viewBox="0 0 8 14" fill="none" xmlns="http://www.w3.org/2000/svg">
<path d="M4.88748 7.00012L0.46248 2.57512C0.229667 2.34092 0.0989898 2.0241 0.0989898 1.69387C0.0989898 1.36364 0.229667 1.04682 0.46248 0.812619C0.578684 0.695458 0.716935 0.602465 0.869259 0.539004C1.02158 0.475544 1.18497 0.442871 1.34998 0.442871C1.51499 0.442871 1.67838 0.475544 1.8307 0.539004C1.98303 0.602465 2.12128 0.695458 2.23748 0.812619L7.53748 6.11262C7.65464 6.22882 7.74763 6.36707 7.81109 6.5194C7.87455 6.67172 7.90723 6.8351 7.90723 7.00012C7.90723 7.16513 7.87455 7.32852 7.81109 7.48084C7.74763 7.63316 7.65464 7.77141 7.53748 7.88762L2.23748 13.2501C2.12068 13.366 1.98216 13.4576 1.82986 13.5198C1.67757 13.582 1.51449 13.6136 1.34998 13.6126C1.18547 13.6136 1.02239 13.582 0.870097 13.5198C0.7178 13.4576 0.57928 13.366 0.46248 13.2501C0.229667 13.0159 0.0989898 12.6991 0.0989898 12.3689C0.0989898 12.0386 0.229667 11.7218 0.46248 11.4876L4.88748 7.00012Z" fill="white"/>
</svg>
